<svg width="34" height="33" viewBox="0 0 34 33" fill="none" xmlns="http://www.w3.org/2000/svg">
<g clip-path="url(#clip0)">
<path d="M17.3163 0.669189H0.669067V5.29936H17.3163V0.669189Z" fill="black"/>
<path fill-rule="evenodd" clip-rule="evenodd" d="M0.0163574 0.669954C0.0163574 0.308983 0.308983 0.0163574 0.669954 0.0163574H17.3172C17.6781 0.0163574 17.9708 0.308983 17.9708 0.669954V5.30012C17.9708 5.6611 17.6781 5.95372 17.3172 5.95372H0.669954C0.308983 5.95372 0.0163574 5.6611 0.0163574 5.30012V0.669954ZM1.32355 1.32355V4.64653H16.6636V1.32355H1.32355Z" fill="black"/>
<path d="M17.3163 9.68872H0.669067V14.3189H17.3163V9.68872Z" fill="black"/>
<path fill-rule="evenodd" clip-rule="evenodd" d="M0.0155029 9.68875C0.0155029 9.32778 0.308128 9.03516 0.6691 9.03516H17.3163C17.6773 9.03516 17.9699 9.32778 17.9699 9.68875V14.3189C17.9699 14.6799 17.6773 14.9725 17.3163 14.9725H0.6691C0.308128 14.9725 0.0155029 14.6799 0.0155029 14.3189V9.68875ZM1.3227 10.3424V13.6653H16.6627V10.3424H1.3227Z" fill="black"/>
<path d="M29.5474 23.3383H0.669067V18.6814H28.2092L29.5474 23.3383Z" fill="black"/>
<path fill-rule="evenodd" clip-rule="evenodd" d="M0.0155029 18.6814C0.0155029 18.3205 0.308128 18.0278 0.6691 18.0278H28.2092C28.5007 18.0278 28.7569 18.2208 28.8374 18.5009L30.1756 23.1578C30.2323 23.3551 30.193 23.5676 30.0695 23.7316C29.946 23.8955 29.7527 23.992 29.5474 23.992H0.6691C0.308128 23.992 0.0155029 23.6993 0.0155029 23.3384V18.6814ZM1.3227 19.335V22.6848H28.6796L27.717 19.335H1.3227Z" fill="black"/>
<path d="M32.5985 32.3311H0.669067V27.7009H31.2603L32.5985 32.3311Z" fill="black"/>
<path fill-rule="evenodd" clip-rule="evenodd" d="M0.0155029 27.701C0.0155029 27.34 0.308128 27.0474 0.6691 27.0474H31.2603C31.5514 27.0474 31.8074 27.2399 31.8882 27.5195L33.2264 32.1497C33.2835 32.347 33.2444 32.5597 33.1209 32.7239C32.9975 32.8881 32.804 32.9847 32.5985 32.9847H0.6691C0.308128 32.9847 0.0155029 32.6921 0.0155029 32.3311V27.701ZM1.3227 28.3546V31.6775H31.7293L30.7689 28.3546H1.3227Z" fill="black"/>
</g>
<defs>
<clipPath id="clip0">
<rect width="33.2676" height="33" fill="white"/>
</clipPath>
</defs>
</svg>
